<svg width="31" height="30" viewBox="0 0 31 30" fill="none" xmlns="http://www.w3.org/2000/svg">
<g id="icon-settings" clip-path="url(#clip0_223_347)">
<g id="Shape">
<path fill-rule="evenodd" clip-rule="evenodd" d="M15.5 10C12.7386 10 10.5 12.2386 10.5 15C10.5 17.7614 12.7386 20 15.5 20C18.2614 20 20.5 17.7614 20.5 15C20.5 12.2386 18.2614 10 15.5 10ZM13 15C13 13.6193 14.1193 12.5 15.5 12.5C16.8807 12.5 18 13.6193 18 15C18 16.3807 16.8807 17.5 15.5 17.5C14.1193 17.5 13 16.3807 13 15Z" fill="white"/>
<path fill-rule="evenodd" clip-rule="evenodd" d="M25.8936 19.2547L24.75 18.75L25.8989 19.2424C25.9613 19.0968 26.065 18.9726 26.1971 18.8851C26.3287 18.7979 26.4828 18.751 26.6406 18.75H26.75C27.7446 18.75 28.6984 18.3549 29.4017 17.6516C30.1049 16.9484 30.5 15.9946 30.5 15C30.5 14.0054 30.1049 13.0516 29.4017 12.3484C28.6984 11.6451 27.7446 11.25 26.75 11.25H26.5406C26.3828 11.249 26.2287 11.2021 26.0971 11.1149C26.0085 11.0562 25.9326 10.981 25.8735 10.8938C25.8556 10.8087 25.8289 10.7253 25.7936 10.6453C25.728 10.4968 25.7085 10.332 25.7374 10.1723C25.7661 10.0143 25.8409 9.86835 25.9524 9.75289L26.0209 9.68437C26.3693 9.33621 26.6462 8.92231 26.8349 8.46728C27.0236 8.01204 27.1207 7.52406 27.1207 7.03125C27.1207 6.53844 27.0236 6.05047 26.8349 5.59522C26.6463 5.14041 26.3701 4.72718 26.0219 4.37911C25.6736 4.03045 25.26 3.75385 24.8048 3.56513C24.3495 3.37642 23.8616 3.27928 23.3687 3.27928C22.8759 3.27928 22.388 3.37642 21.9327 3.56513C21.4775 3.75385 21.0639 4.03045 20.7156 4.37911L20.6471 4.44764C20.5316 4.55911 20.3857 4.63391 20.2277 4.66256C20.068 4.69152 19.9032 4.67197 19.7547 4.60642L19.7424 4.60108C19.5968 4.53865 19.4726 4.43501 19.3851 4.3029C19.2979 4.1713 19.251 4.01718 19.25 3.85937V3.75C19.25 2.75544 18.8549 1.80161 18.1516 1.09835C17.4484 0.395088 16.4946 0 15.5 0C14.5054 0 13.5516 0.395088 12.8484 1.09835C12.1451 1.80161 11.75 2.75544 11.75 3.75V3.95937C11.749 4.11718 11.7021 4.2713 11.6149 4.40289C11.5562 4.49154 11.481 4.56737 11.3938 4.62653C11.3087 4.64436 11.2253 4.67109 11.1453 4.70642C10.9968 4.77197 10.832 4.79152 10.6723 4.76256C10.5143 4.73391 10.3684 4.6591 10.2529 4.54762L10.1844 4.47911C9.8361 4.13045 9.42252 3.85385 8.96728 3.66513C8.51203 3.47642 8.02406 3.37928 7.53125 3.37928C7.03844 3.37928 6.55047 3.47642 6.09522 3.66513C5.64019 3.85376 5.22679 4.13019 4.87862 4.47862C4.53019 4.82679 4.25376 5.24019 4.06513 5.69522C3.87642 6.15047 3.77928 6.63844 3.77928 7.13125C3.77928 7.62406 3.87642 8.11203 4.06513 8.56728C4.25385 9.02252 4.53045 9.4361 4.87911 9.78438L4.94762 9.85289C5.0591 9.96835 5.13391 10.1143 5.16256 10.2723C5.19152 10.432 5.17197 10.5968 5.10642 10.7453C5.09579 10.7694 5.08592 10.7938 5.07683 10.8185C5.02055 10.9715 4.91955 11.1041 4.78694 11.1989C4.65739 11.2916 4.50354 11.3441 4.34455 11.35H4.25C3.25544 11.35 2.30161 11.7451 1.59835 12.4483C0.895088 13.1516 0.5 14.1054 0.5 15.1C0.5 16.0946 0.895088 17.0484 1.59835 17.7516C2.30161 18.4549 3.25544 18.85 4.25 18.85H4.45937C4.61718 18.851 4.7713 18.8979 4.90289 18.9851C5.03501 19.0726 5.13865 19.1968 5.20108 19.3424L5.20642 19.3547C5.27197 19.5032 5.29152 19.668 5.26256 19.8277C5.23391 19.9857 5.15911 20.1316 5.04764 20.2471L4.97911 20.3156C4.63045 20.6639 4.35385 21.0775 4.16513 21.5327C3.97642 21.988 3.87928 22.4759 3.87928 22.9688C3.87928 23.4616 3.97642 23.9495 4.16513 24.4048C4.35385 24.86 4.63045 25.2736 4.97911 25.6219C5.32718 25.9701 5.74041 26.2463 6.19522 26.4349C6.65047 26.6236 7.13844 26.7207 7.63125 26.7207C8.12406 26.7207 8.61203 26.6236 9.06728 26.4349C9.52231 26.2462 9.93572 25.9698 10.2839 25.6214L10.3529 25.5524C10.4683 25.4409 10.6143 25.3661 10.7723 25.3374C10.932 25.3085 11.0968 25.328 11.2453 25.3936C11.2694 25.4042 11.2938 25.4141 11.3185 25.4232C11.4715 25.4794 11.6041 25.5805 11.6989 25.7131C11.7916 25.8426 11.8441 25.9965 11.85 26.1555V26.25C11.85 27.2446 12.2451 28.1984 12.9483 28.9017C13.6516 29.6049 14.6054 30 15.6 30C16.5946 30 17.5484 29.6049 18.2516 28.9017C18.9549 28.1984 19.35 27.2446 19.35 26.25V26.0406C19.351 25.8828 19.3979 25.7287 19.4851 25.5971C19.5726 25.465 19.6968 25.3613 19.8424 25.2989L19.8547 25.2936C20.0032 25.228 20.168 25.2085 20.3277 25.2374C20.4857 25.2661 20.6316 25.3409 20.7471 25.4523L20.8156 25.5209C21.1638 25.8693 21.5777 26.1462 22.0327 26.3349C22.488 26.5236 22.9759 26.6207 23.4688 26.6207C23.9616 26.6207 24.4495 26.5236 24.9048 26.3349C25.3598 26.1462 25.7732 25.8698 26.1214 25.5214C26.4698 25.1732 26.7462 24.7598 26.9349 24.3048C27.1236 23.8495 27.2207 23.3616 27.2207 22.8687C27.2207 22.3759 27.1236 21.888 26.9349 21.4327C26.7462 20.9777 26.4698 20.5643 26.1214 20.2161L26.0523 20.1471C25.9409 20.0316 25.8661 19.8857 25.8374 19.7277C25.8085 19.568 25.828 19.4032 25.8936 19.2547ZM14.6161 2.86612C14.8505 2.6317 15.1685 2.5 15.5 2.5C15.8315 2.5 16.1495 2.6317 16.3839 2.86612C16.6183 3.10054 16.75 3.41848 16.75 3.75V3.8625L16.75 3.86749C16.7526 4.5135 16.944 5.14466 17.3007 5.68327C17.6562 6.22001 18.1603 6.6415 18.7514 6.89627C19.3553 7.16135 20.0247 7.24014 20.6737 7.12245C21.325 7.00437 21.9259 6.6939 22.3991 6.23108L22.4089 6.22138L22.4839 6.14638C22.6 6.03016 22.7383 5.93747 22.8901 5.87457C23.0418 5.81166 23.2045 5.77928 23.3687 5.77928C23.533 5.77928 23.6957 5.81166 23.8474 5.87457C23.9992 5.93747 24.137 6.02967 24.2531 6.14589L24.2541 6.14687C24.3703 6.26297 24.4625 6.40083 24.5254 6.55257C24.5883 6.70432 24.6207 6.86698 24.6207 7.03125C24.6207 7.19552 24.5883 7.35818 24.5254 7.50993C24.4625 7.66167 24.3703 7.79953 24.2541 7.91563L24.1786 7.99112L24.1689 8.00092C23.7061 8.47406 23.3956 9.075 23.2775 9.72625C23.175 10.2917 23.2216 10.8725 23.4105 11.412C23.4254 11.5255 23.4558 11.6367 23.5011 11.7424C23.7556 12.3362 24.1781 12.8426 24.7167 13.1993C25.2553 13.556 25.8865 13.7474 26.5325 13.75L26.5375 13.75H26.75C27.0815 13.75 27.3995 13.8817 27.6339 14.1161C27.8683 14.3505 28 14.6685 28 15C28 15.3315 27.8683 15.6495 27.6339 15.8839C27.3995 16.1183 27.0815 16.25 26.75 16.25L26.6375 16.25L26.6325 16.25C25.9865 16.2526 25.3553 16.444 24.8167 16.8007C24.2799 17.1562 23.8584 17.6604 23.6037 18.2515C23.3386 18.8554 23.2599 19.5247 23.3776 20.1737C23.4956 20.825 23.8061 21.4259 24.2689 21.8991L24.2786 21.9089L24.3536 21.9839C24.4698 22.1 24.5625 22.2383 24.6254 22.3901C24.6883 22.5418 24.7207 22.7045 24.7207 22.8687C24.7207 23.033 24.6883 23.1957 24.6254 23.3474C24.5625 23.4992 24.4703 23.637 24.3541 23.7531L24.3531 23.7541C24.237 23.8703 24.0992 23.9625 23.9474 24.0254C23.7957 24.0883 23.633 24.1207 23.4688 24.1207C23.3045 24.1207 23.1418 24.0883 22.9901 24.0254C22.8383 23.9625 22.7005 23.8703 22.5844 23.7541L22.5089 23.6786L22.4991 23.6689C22.0259 23.2061 21.425 22.8956 20.7737 22.7775C20.1247 22.6599 19.4554 22.7386 18.8515 23.0037C18.2604 23.2584 17.7562 23.6799 17.4007 24.2167C17.044 24.7553 16.8526 25.3865 16.85 26.0325L16.85 26.0375V26.25C16.85 26.5815 16.7183 26.8995 16.4839 27.1339C16.2495 27.3683 15.9315 27.5 15.6 27.5C15.2685 27.5 14.9505 27.3683 14.7161 27.1339C14.4817 26.8995 14.35 26.5815 14.35 26.25V26.1375L14.3497 26.1083C14.3341 25.4438 14.119 24.7993 13.7324 24.2587C13.3533 23.7288 12.8267 23.3226 12.2185 23.0907C11.6224 22.8361 10.9645 22.7618 10.3263 22.8776C9.67501 22.9956 9.07406 23.3061 8.60092 23.7689L8.59111 23.7786L8.51611 23.8536C8.40002 23.9698 8.26168 24.0625 8.10993 24.1254C7.95818 24.1883 7.79552 24.2207 7.63125 24.2207C7.46698 24.2207 7.30432 24.1883 7.15257 24.1254C7.00082 24.0625 6.86296 23.9703 6.74688 23.8541L6.74589 23.8531C6.62967 23.737 6.53747 23.5992 6.47457 23.4474C6.41166 23.2957 6.37928 23.133 6.37928 22.9688C6.37928 22.8045 6.41166 22.6418 6.47457 22.4901C6.53747 22.3383 6.62967 22.2005 6.74589 22.0844L6.82138 22.0089L6.83108 21.9991C7.2939 21.5259 7.60437 20.925 7.72245 20.2737C7.84014 19.6247 7.76135 18.9553 7.49627 18.3514C7.2415 17.7603 6.82001 17.2562 6.28327 16.9007C5.74466 16.544 5.1135 16.3526 4.46749 16.35L4.4625 16.35H4.25C3.91848 16.35 3.60054 16.2183 3.36612 15.9839C3.1317 15.7495 3 15.4315 3 15.1C3 14.7685 3.1317 14.4505 3.36612 14.2161C3.60054 13.9817 3.91848 13.85 4.25 13.85H4.3625L4.39173 13.8497C5.05623 13.8341 5.70068 13.619 6.24131 13.2324C6.77122 12.8533 7.17736 12.3267 7.40931 11.7185C7.66391 11.1225 7.73818 10.4645 7.62245 9.82625C7.50437 9.175 7.1939 8.57406 6.73108 8.10092L6.72138 8.09112L6.64638 8.01612C6.53016 7.90002 6.43747 7.76167 6.37457 7.60993C6.31166 7.45818 6.27928 7.29552 6.27928 7.13125C6.27928 6.96698 6.31166 6.80432 6.37457 6.65257C6.43747 6.50083 6.52967 6.36297 6.64589 6.24687L6.64687 6.24589C6.76297 6.12967 6.90083 6.03747 7.05257 5.97457C7.20432 5.91166 7.36698 5.87928 7.53125 5.87928C7.69552 5.87928 7.85818 5.91166 8.00993 5.97457C8.16167 6.03747 8.29953 6.12967 8.41563 6.24589L8.49112 6.32138L8.50092 6.33108C8.97406 6.7939 9.575 7.10437 10.2263 7.22245C10.7917 7.32497 11.3725 7.2784 11.912 7.08946C12.0255 7.07462 12.1367 7.04422 12.2424 6.99892C12.8362 6.74444 13.3426 6.32188 13.6993 5.78327C14.056 5.24466 14.2474 4.6135 14.25 3.96749L14.25 3.9625V3.75C14.25 3.41848 14.3817 3.10054 14.6161 2.86612Z" fill="white"/>
</g>
</g>
<defs>
<clipPath id="clip0_223_347">
<rect width="30" height="30" fill="white" transform="translate(0.5)"/>
</clipPath>
</defs>
</svg>
