<svg width="31" height="30" viewBox="0 0 31 30" fill="none" xmlns="http://www.w3.org/2000/svg">
<g id="icon-loader">
<g id="Shape">
<path d="M16.75 2.50002C16.75 1.80966 16.1904 1.25002 15.5 1.25002C14.8096 1.25002 14.25 1.80966 14.25 2.50002V7.50002C14.25 8.19037 14.8096 8.75002 15.5 8.75002C16.1904 8.75002 16.75 8.19037 16.75 7.50002V2.50002Z" fill="white"/>
<path d="M16.75 22.5C16.75 21.8097 16.1904 21.25 15.5 21.25C14.8096 21.25 14.25 21.8097 14.25 22.5V27.5C14.25 28.1904 14.8096 28.75 15.5 28.75C16.1904 28.75 16.75 28.1904 16.75 27.5V22.5Z" fill="white"/>
<path d="M5.77853 5.27862C6.26669 4.79047 7.05814 4.79047 7.5463 5.27862L11.0838 8.81612C11.572 9.30428 11.572 10.0957 11.0838 10.5839C10.5956 11.072 9.80419 11.072 9.31603 10.5839L5.77853 7.04639C5.29038 6.55823 5.29038 5.76678 5.77853 5.27862Z" fill="white"/>
<path d="M21.6839 19.4161C21.1957 18.928 20.4043 18.928 19.9161 19.4161C19.4279 19.9043 19.4279 20.6958 19.9161 21.1839L23.4536 24.7214C23.9418 25.2096 24.7332 25.2096 25.2214 24.7214C25.7095 24.2332 25.7095 23.4418 25.2214 22.9536L21.6839 19.4161Z" fill="white"/>
<path d="M1.75 15C1.75 14.3097 2.30964 13.75 3 13.75H8C8.69036 13.75 9.25 14.3097 9.25 15C9.25 15.6904 8.69036 16.25 8 16.25H3C2.30964 16.25 1.75 15.6904 1.75 15Z" fill="white"/>
<path d="M23 13.75C22.3096 13.75 21.75 14.3097 21.75 15C21.75 15.6904 22.3096 16.25 23 16.25H28C28.6904 16.25 29.25 15.6904 29.25 15C29.25 14.3097 28.6904 13.75 28 13.75H23Z" fill="white"/>
<path d="M11.0838 19.4161C11.572 19.9043 11.572 20.6958 11.0838 21.1839L7.5463 24.7214C7.05814 25.2096 6.26669 25.2096 5.77853 24.7214C5.29038 24.2332 5.29038 23.4418 5.77853 22.9536L9.31603 19.4161C9.80419 18.928 10.5956 18.928 11.0838 19.4161Z" fill="white"/>
<path d="M25.2214 7.04639C25.7095 6.55823 25.7095 5.76678 25.2214 5.27862C24.7332 4.79047 23.9418 4.79047 23.4536 5.27862L19.9161 8.81612C19.4279 9.30428 19.4279 10.0957 19.9161 10.5839C20.4043 11.072 21.1957 11.072 21.6839 10.5839L25.2214 7.04639Z" fill="white"/>
</g>
</g>
</svg>
