<svg width="31" height="30" viewBox="0 0 31 30" fill="none" xmlns="http://www.w3.org/2000/svg">
<g id="heroicons-outline/user-group">
<path id="Vector" d="M22.9999 23.3989C23.3093 23.4245 23.6222 23.4375 23.9382 23.4375C25.2486 23.4375 26.5067 23.2135 27.6763 22.8016C27.6842 22.7021 27.6882 22.6015 27.6882 22.5C27.6882 20.4289 26.0093 18.75 23.9382 18.75C23.1537 18.75 22.4254 18.9909 21.8234 19.4028M22.9999 23.3989C23 23.4118 23 23.4246 23 23.4375C23 23.7187 22.9845 23.9964 22.9544 24.2696C20.7584 25.5296 18.2133 26.25 15.5 26.25C12.7867 26.25 10.2416 25.5296 8.04563 24.2696C8.01548 23.9964 8 23.7187 8 23.4375C8 23.4247 8.00003 23.4119 8.0001 23.3991M22.9999 23.3989C22.9925 21.9282 22.5618 20.5577 21.8234 19.4028M21.8234 19.4028C20.491 17.319 18.1568 15.9375 15.5 15.9375C12.8435 15.9375 10.5096 17.3186 9.17711 19.402M9.17711 19.402C8.57529 18.9906 7.84745 18.75 7.06342 18.75C4.99235 18.75 3.31342 20.4289 3.31342 22.5C3.31342 22.6015 3.31745 22.7021 3.32537 22.8016C4.49491 23.2135 5.753 23.4375 7.06342 23.4375C7.37884 23.4375 7.69124 23.4245 8.0001 23.3991M9.17711 19.402C8.43838 20.5571 8.00748 21.928 8.0001 23.3991M19.25 8.4375C19.25 10.5086 17.5711 12.1875 15.5 12.1875C13.4289 12.1875 11.75 10.5086 11.75 8.4375C11.75 6.36643 13.4289 4.6875 15.5 4.6875C17.5711 4.6875 19.25 6.36643 19.25 8.4375ZM26.75 12.1875C26.75 13.7408 25.4908 15 23.9375 15C22.3842 15 21.125 13.7408 21.125 12.1875C21.125 10.6342 22.3842 9.375 23.9375 9.375C25.4908 9.375 26.75 10.6342 26.75 12.1875ZM9.875 12.1875C9.875 13.7408 8.6158 15 7.0625 15C5.5092 15 4.25 13.7408 4.25 12.1875C4.25 10.6342 5.5092 9.375 7.0625 9.375C8.6158 9.375 9.875 10.6342 9.875 12.1875Z" stroke="white" stroke-width="1.5" stroke-linecap="round" stroke-linejoin="round"/>
</g>
</svg>
