<svg width="31" height="30" viewBox="0 0 31 30" fill="none" xmlns="http://www.w3.org/2000/svg">
<g id="icon-question">
<g id="Shape">
<path d="M15.8228 10.0304C15.2409 9.93061 14.6424 10.04 14.1334 10.3391C13.6244 10.6383 13.2377 11.1079 13.0418 11.6648C12.8127 12.3161 12.0991 12.6583 11.4478 12.4292C10.7966 12.2001 10.4544 11.4865 10.6835 10.8352C11.0753 9.72134 11.8487 8.78207 12.8667 8.18378C13.8847 7.58549 15.0816 7.36679 16.2454 7.56641C17.4092 7.76603 18.4648 8.3711 19.2253 9.27444C19.9856 10.1776 20.4017 11.3206 20.4001 12.5012C20.3996 14.4141 18.9813 15.6774 17.9685 16.3526C17.424 16.7156 16.8883 16.9825 16.4938 17.1579C16.2947 17.2464 16.1271 17.3135 16.0063 17.3595C15.9458 17.3826 15.8967 17.4005 15.861 17.4131L15.8176 17.4284L15.8038 17.4331L15.7989 17.4347L15.797 17.4354C15.797 17.4354 15.7954 17.4359 15.4001 16.25L15.7954 17.4359C15.1405 17.6542 14.4326 17.3002 14.2143 16.6453C13.9961 15.9908 14.3495 15.2834 15.0036 15.0646L15.0235 15.0576C15.0427 15.0508 15.0742 15.0393 15.1163 15.0233C15.2006 14.9912 15.3259 14.9412 15.4784 14.8734C15.787 14.7363 16.1888 14.5344 16.5818 14.2725C17.4438 13.6978 17.9001 13.0864 17.9001 12.5V12.4982C17.901 11.9078 17.6929 11.3361 17.3127 10.8844C16.9325 10.4328 16.4047 10.1302 15.8228 10.0304Z" fill="white"/>
<path d="M15.5 20C14.8096 20 14.25 20.5596 14.25 21.25C14.25 21.9404 14.8096 22.5 15.5 22.5H15.5125C16.2029 22.5 16.7625 21.9404 16.7625 21.25C16.7625 20.5596 16.2029 20 15.5125 20H15.5Z" fill="white"/>
<path fill-rule="evenodd" clip-rule="evenodd" d="M1.75 15C1.75 7.40608 7.90608 1.25 15.5 1.25C23.0939 1.25 29.25 7.40608 29.25 15C29.25 22.5939 23.0939 28.75 15.5 28.75C7.90608 28.75 1.75 22.5939 1.75 15ZM15.5 3.75C9.2868 3.75 4.25 8.7868 4.25 15C4.25 21.2132 9.2868 26.25 15.5 26.25C21.7132 26.25 26.75 21.2132 26.75 15C26.75 8.7868 21.7132 3.75 15.5 3.75Z" fill="white"/>
</g>
</g>
</svg>
