<svg width="29" height="28" viewBox="0 0 29 28" fill="none" xmlns="http://www.w3.org/2000/svg">
<g id="heroicons-outline/cog-8-tooth">
<g id="Vector">
<path d="M12.5664 4.59673C12.6719 3.96385 13.2194 3.5 13.861 3.5H15.1373C15.7789 3.5 16.3265 3.96385 16.432 4.59673L16.6058 5.63951C16.6883 6.13449 17.0533 6.53145 17.5168 6.72387C17.9805 6.91638 18.5129 6.89067 18.9214 6.59887L19.7819 5.98422C20.304 5.6113 21.0191 5.67049 21.4728 6.12417L22.3753 7.02665C22.829 7.48033 22.8882 8.19551 22.5153 8.7176L21.9004 9.57841C21.6087 9.98681 21.583 10.519 21.7754 10.9826C21.9678 11.4459 22.3646 11.8109 22.8595 11.8934L23.9025 12.0672C24.5353 12.1727 24.9992 12.7203 24.9992 13.3619V14.6381C24.9992 15.2797 24.5353 15.8273 23.9025 15.9328L22.8597 16.1066C22.3647 16.1891 21.9677 16.5542 21.7753 17.0176C21.5828 17.4812 21.6085 18.0136 21.9003 18.4221L22.5149 19.2825C22.8878 19.8046 22.8286 20.5197 22.3749 20.9734L21.4724 21.8759C21.0188 22.3296 20.3036 22.3888 19.7815 22.0159L18.9209 21.4012C18.5125 21.1094 17.9802 21.0837 17.5167 21.2762C17.0533 21.4686 16.6883 21.8655 16.6058 22.3604L16.432 23.4033C16.3265 24.0361 15.7789 24.5 15.1373 24.5H13.861C13.2194 24.5 12.6719 24.0361 12.5664 23.4033L12.3926 22.3605C12.3101 21.8655 11.945 21.4686 11.4816 21.2761C11.0179 21.0836 10.4856 21.1093 10.0771 21.4011L9.21649 22.0158C8.6944 22.3887 7.97922 22.3296 7.52554 21.8759L6.62307 20.9734C6.16939 20.5197 6.1102 19.8045 6.48312 19.2824L7.09799 18.4216C7.38971 18.0132 7.41543 17.481 7.22298 17.0174C7.03062 16.5541 6.63374 16.1891 6.13887 16.1066L5.09591 15.9328C4.46304 15.8273 3.99918 15.2797 3.99918 14.6381V13.3619C3.99918 12.7203 4.46304 12.1727 5.09591 12.0672L6.13868 11.8934C6.63367 11.8109 7.03063 11.4458 7.22306 10.9824C7.41557 10.5187 7.38986 9.98631 7.09806 9.57779L6.48358 8.71752C6.11065 8.19543 6.16984 7.48025 6.62352 7.02657L7.526 6.1241C7.97968 5.67041 8.69486 5.61122 9.21695 5.98415L10.0775 6.59881C10.4859 6.89054 11.0182 6.91626 11.4817 6.72381C11.9451 6.53143 12.3101 6.13455 12.3926 5.63967L12.5664 4.59673Z" stroke="white" stroke-width="1.5" stroke-linecap="round" stroke-linejoin="round"/>
<path d="M18 14C18 15.933 16.433 17.5 14.5 17.5C12.567 17.5 11 15.933 11 14C11 12.067 12.567 10.5 14.5 10.5C16.433 10.5 18 12.067 18 14Z" stroke="white" stroke-width="1.5" stroke-linecap="round" stroke-linejoin="round"/>
</g>
</g>
</svg>
