<svg width="31" height="30" viewBox="0 0 31 30" fill="none" xmlns="http://www.w3.org/2000/svg">
<g id="Clock" clip-path="url(#clip0_223_334)">
<path id="Vector" d="M15.5 6.56253C15.5 6.31389 15.4012 6.07543 15.2254 5.89962C15.0496 5.7238 14.8111 5.62503 14.5625 5.62503C14.3139 5.62503 14.0754 5.7238 13.8996 5.89962C13.7238 6.07543 13.625 6.31389 13.625 6.56253V16.875C13.6251 17.0403 13.6688 17.2026 13.7518 17.3455C13.8347 17.4884 13.954 17.6068 14.0975 17.6888L20.66 21.4388C20.8754 21.5552 21.1277 21.5827 21.3631 21.5155C21.5985 21.4483 21.7983 21.2917 21.9197 21.0792C22.0412 20.8666 22.0747 20.615 22.0131 20.3781C21.9514 20.1412 21.7996 19.9377 21.59 19.8113L15.5 16.3313V6.56253Z" fill="white"/>
<path id="Vector_2" d="M15.5 30C19.4782 30 23.2936 28.4197 26.1066 25.6066C28.9196 22.7936 30.5 18.9783 30.5 15C30.5 11.0218 28.9196 7.20647 26.1066 4.39343C23.2936 1.58038 19.4782 3.05176e-05 15.5 3.05176e-05C11.5218 3.05176e-05 7.70644 1.58038 4.8934 4.39343C2.08035 7.20647 0.5 11.0218 0.5 15C0.5 18.9783 2.08035 22.7936 4.8934 25.6066C7.70644 28.4197 11.5218 30 15.5 30ZM28.625 15C28.625 18.481 27.2422 21.8194 24.7808 24.2808C22.3194 26.7422 18.981 28.125 15.5 28.125C12.019 28.125 8.68064 26.7422 6.21922 24.2808C3.75781 21.8194 2.375 18.481 2.375 15C2.375 11.5191 3.75781 8.18067 6.21922 5.71925C8.68064 3.25784 12.019 1.87503 15.5 1.87503C18.981 1.87503 22.3194 3.25784 24.7808 5.71925C27.2422 8.18067 28.625 11.5191 28.625 15Z" fill="white"/>
</g>
<defs>
<clipPath id="clip0_223_334">
<rect width="30" height="30" fill="white" transform="translate(0.5 3.05176e-05)"/>
</clipPath>
</defs>
</svg>
