<svg width="31" height="30" viewBox="0 0 31 30" fill="none" xmlns="http://www.w3.org/2000/svg">
<g id="Frame 1171275512">
<g id="Group 2">
<path id="search-icon" d="M7.39568 25.0054V22.9903C7.39568 22.7291 7.31165 22.4959 7.14359 22.2906C6.97552 22.0854 6.76545 21.9921 6.51335 22.0108H4.69829C4.463 22.0108 4.25293 22.1041 4.06806 22.2906C3.88319 22.4772 3.79076 22.7104 3.79076 22.9903V25.0054C3.79076 25.2666 3.88319 25.4998 4.06806 25.7051C4.25293 25.9103 4.463 26.0129 4.69829 26.0129H6.51335C6.74864 26.0129 6.95872 25.9103 7.14359 25.7051C7.32845 25.4998 7.41248 25.2666 7.39568 25.0054ZM7.39568 19.0161V17.0011C7.39568 16.7399 7.31165 16.5066 7.14359 16.3014C6.97552 16.0962 6.76545 15.9935 6.51335 15.9935H4.69829C4.463 15.9935 4.25293 16.0962 4.06806 16.3014C3.88319 16.5066 3.79076 16.7399 3.79076 17.0011V19.0161C3.79076 19.2774 3.88319 19.5106 4.06806 19.7158C4.25293 19.9211 4.463 20.0144 4.69829 19.9957H6.51335C6.74864 19.9957 6.95872 19.9024 7.14359 19.7158C7.32845 19.5292 7.41248 19.296 7.39568 19.0161ZM7.39568 12.9989V11.0118C7.39568 10.732 7.31165 10.4987 7.14359 10.3122C6.97552 10.1256 6.76545 10.023 6.51335 10.0043H4.69829C4.463 10.0043 4.25293 10.1069 4.06806 10.3122C3.88319 10.5174 3.79076 10.7506 3.79076 11.0118V12.9989C3.79076 13.2788 3.88319 13.512 4.06806 13.6986C4.25293 13.8852 4.463 13.9878 4.69829 14.0065H6.51335C6.74864 14.0065 6.95872 13.9038 7.14359 13.6986C7.32845 13.4934 7.41248 13.2601 7.39568 12.9989ZM21.8154 25.0054V17.0011C21.8154 16.7399 21.7229 16.5066 21.5381 16.3014C21.3532 16.0962 21.1431 15.9935 20.9078 15.9935H10.0931C9.85778 15.9935 9.6477 16.0962 9.46283 16.3014C9.27797 16.5066 9.19394 16.7399 9.21074 17.0011V25.0054C9.21074 25.2666 9.29477 25.4998 9.46283 25.7051C9.6309 25.9103 9.84097 26.0129 10.0931 26.0129H20.9078C21.1599 26.0129 21.37 25.9103 21.5381 25.7051C21.7061 25.4998 21.7986 25.2666 21.8154 25.0054ZM7.39568 7.00969V5.02261C7.39568 4.74273 7.31165 4.50018 7.14359 4.29494C6.97552 4.0897 6.76545 3.99641 6.51335 4.01507H4.69829C4.463 4.01507 4.25293 4.10836 4.06806 4.29494C3.88319 4.48152 3.79076 4.72408 3.79076 5.02261V7.00969C3.79076 7.2709 3.88319 7.50413 4.06806 7.70936C4.25293 7.9146 4.463 8.01722 4.69829 8.01722H6.51335C6.74864 8.01722 6.95872 7.9146 7.14359 7.70936C7.32845 7.50413 7.41248 7.2709 7.39568 7.00969ZM27.2101 25.0054V22.9903C27.2101 22.7291 27.1177 22.4959 26.9328 22.2906C26.748 22.0854 26.5379 21.9921 26.3026 22.0108H24.5128C24.2607 22.0108 24.0506 22.1041 23.8825 22.2906C23.7145 22.4772 23.622 22.7104 23.6052 22.9903V25.0054C23.6052 25.2666 23.6977 25.4998 23.8825 25.7051C24.0674 25.9103 24.2775 26.0129 24.5128 26.0129H26.3026C26.5547 26.0129 26.7648 25.9103 26.9328 25.7051C27.1009 25.4998 27.1933 25.2666 27.2101 25.0054ZM21.8154 12.9989V5.02261C21.8154 4.74273 21.7229 4.50018 21.5381 4.29494C21.3532 4.0897 21.1431 3.99641 20.9078 4.01507H10.0931C9.85778 4.01507 9.6477 4.10836 9.46283 4.29494C9.27797 4.48152 9.19394 4.72408 9.21074 5.02261V12.9989C9.21074 13.2788 9.29477 13.512 9.46283 13.6986C9.6309 13.8852 9.84097 13.9878 10.0931 14.0065H20.9078C21.1599 14.0065 21.37 13.9038 21.5381 13.6986C21.7061 13.4934 21.7986 13.2601 21.8154 12.9989ZM27.2101 19.0161V17.0011C27.2101 16.7399 27.1177 16.5066 26.9328 16.3014C26.748 16.0962 26.5379 15.9935 26.3026 15.9935H24.5128C24.2607 15.9935 24.0506 16.0962 23.8825 16.3014C23.7145 16.5066 23.622 16.7399 23.6052 17.0011V19.0161C23.6052 19.2774 23.6977 19.5106 23.8825 19.7158C24.0674 19.9211 24.2775 20.0144 24.5128 19.9957H26.3026C26.5547 19.9957 26.7648 19.9024 26.9328 19.7158C27.1009 19.5292 27.1933 19.296 27.2101 19.0161ZM27.2101 12.9989V11.0118C27.2101 10.732 27.1177 10.4987 26.9328 10.3122C26.748 10.1256 26.5379 10.023 26.3026 10.0043H24.5128C24.2607 10.0043 24.0506 10.1069 23.8825 10.3122C23.7145 10.5174 23.622 10.7506 23.6052 11.0118V12.9989C23.6052 13.2788 23.6977 13.512 23.8825 13.6986C24.0674 13.8852 24.2775 13.9878 24.5128 14.0065H26.3026C26.5547 14.0065 26.7648 13.9038 26.9328 13.6986C27.1009 13.4934 27.1933 13.2601 27.2101 12.9989ZM27.2101 7.00969V5.02261C27.2101 4.74273 27.1177 4.50018 26.9328 4.29494C26.748 4.0897 26.5379 3.99641 26.3026 4.01507H24.5128C24.2607 4.01507 24.0506 4.10836 23.8825 4.29494C23.7145 4.48152 23.622 4.72408 23.6052 5.02261V7.00969C23.6052 7.2709 23.6977 7.50413 23.8825 7.70936C24.0674 7.9146 24.2775 8.01722 24.5128 8.01722H26.3026C26.5547 8.01722 26.7648 7.9146 26.9328 7.70936C27.1009 7.50413 27.1933 7.2709 27.2101 7.00969ZM29 4.51884V25.5091C29 26.1995 28.7815 26.7872 28.3446 27.2723C27.9076 27.7574 27.3782 28 26.7564 28H4.24452C3.6395 28 3.11011 27.7574 2.65634 27.2723C2.20257 26.7872 1.98409 26.1995 2.0009 25.5091V4.51884C2.0009 3.82849 2.21938 3.24076 2.65634 2.75565C3.0933 2.27054 3.62269 2.01866 4.24452 2H26.7564C27.3782 2 27.9076 2.25188 28.3446 2.75565C28.7815 3.25942 29 3.84715 29 4.51884Z" fill="white"/>
</g>
</g>
</svg>
