<svg width="29" height="28" viewBox="0 0 29 28" fill="none" xmlns="http://www.w3.org/2000/svg">
<g id="heroicons-outline/folder">
<path id="Vector" d="M3.125 14.875V14C3.125 12.5503 4.30025 11.375 5.75 11.375H23.25C24.6997 11.375 25.875 12.5503 25.875 14V14.875M15.7374 7.36244L13.2626 4.88756C12.9344 4.55937 12.4893 4.375 12.0251 4.375H5.75C4.30025 4.375 3.125 5.55025 3.125 7V21C3.125 22.4497 4.30025 23.625 5.75 23.625H23.25C24.6997 23.625 25.875 22.4497 25.875 21V10.5C25.875 9.05025 24.6997 7.875 23.25 7.875H16.9749C16.5107 7.875 16.0656 7.69063 15.7374 7.36244Z" stroke="white" stroke-width="1.5" stroke-linecap="round" stroke-linejoin="round"/>
</g>
</svg>
