<svg width="24" height="25" viewBox="0 0 24 25" fill="none" xmlns="http://www.w3.org/2000/svg">
<g id="heroicons-outline/ticket">
<path id="Vector" d="M16.5 6.54004V7.29004M16.5 10.29V11.04M16.5 14.04V14.79M16.5 17.79V18.54M7.5 13.29H12.75M7.5 15.54H10.5M3.375 5.79004C2.75368 5.79004 2.25 6.29372 2.25 6.91504V9.94139C3.1467 10.4601 3.75 11.4296 3.75 12.54C3.75 13.6505 3.1467 14.62 2.25 15.1387V18.165C2.25 18.7864 2.75368 19.29 3.375 19.29H20.625C21.2463 19.29 21.75 18.7864 21.75 18.165V15.1387C20.8533 14.62 20.25 13.6505 20.25 12.54C20.25 11.4296 20.8533 10.4601 21.75 9.94139V6.91504C21.75 6.29372 21.2463 5.79004 20.625 5.79004H3.375Z" stroke="#FF9900" stroke-width="1.5" stroke-linecap="round" stroke-linejoin="round"/>
</g>
</svg>
