<svg width="31" height="30" viewBox="0 0 31 30" fill="none" xmlns="http://www.w3.org/2000/svg">
<g id="icon-star">
<path id="Shape" fill-rule="evenodd" clip-rule="evenodd" d="M16.6209 1.94675C16.4103 1.52012 15.9758 1.25003 15.5 1.25003C15.0242 1.25003 14.5897 1.52012 14.3791 1.94675L10.8072 9.18311L2.81922 10.3507C2.34852 10.4195 1.95767 10.7495 1.81095 11.202C1.66423 11.6545 1.78707 12.1511 2.12784 12.483L7.90685 18.1117L6.543 26.0637C6.46256 26.5327 6.65537 27.0067 7.04034 27.2863C7.42531 27.566 7.93568 27.6028 8.35682 27.3814L15.5 23.6248L22.6432 27.3814C23.0643 27.6028 23.5747 27.566 23.9597 27.2863C24.3446 27.0067 24.5375 26.5327 24.457 26.0637L23.0932 18.1117L28.8722 12.483C29.2129 12.1511 29.3358 11.6545 29.1891 11.202C29.0423 10.7495 28.6515 10.4195 28.1808 10.3507L20.1928 9.18311L16.6209 1.94675ZM12.7584 10.8783L15.5 5.3241L18.2416 10.8783C18.4235 11.2469 18.775 11.5024 19.1817 11.5619L25.3145 12.4583L20.8778 16.7796C20.583 17.0668 20.4484 17.4807 20.518 17.8863L21.5648 23.9896L16.0818 21.1062C15.7176 20.9146 15.2824 20.9146 14.9182 21.1062L9.43523 23.9896L10.482 17.8863C10.5516 17.4807 10.417 17.0668 10.1222 16.7796L5.68552 12.4583L11.8183 11.5619C12.225 11.5024 12.5765 11.2469 12.7584 10.8783Z" fill="white"/>
</g>
</svg>
