<svg width="20" height="21" viewBox="0 0 20 21" fill="none" xmlns="http://www.w3.org/2000/svg">
<g id="Icon">
<g id="Vector">
<path d="M3.125 5.54004C3.125 4.50451 3.96447 3.66504 5 3.66504H6.875C7.91053 3.66504 8.75 4.50451 8.75 5.54004V7.41504C8.75 8.45057 7.91053 9.29004 6.875 9.29004H5C3.96447 9.29004 3.125 8.45057 3.125 7.41504V5.54004Z" stroke="#FF9900" stroke-linecap="round" stroke-linejoin="round"/>
<path d="M3.125 13.665C3.125 12.6295 3.96447 11.79 5 11.79H6.875C7.91053 11.79 8.75 12.6295 8.75 13.665V15.54C8.75 16.5756 7.91053 17.415 6.875 17.415H5C3.96447 17.415 3.125 16.5756 3.125 15.54V13.665Z" stroke="#FF9900" stroke-linecap="round" stroke-linejoin="round"/>
<path d="M11.25 5.54004C11.25 4.50451 12.0895 3.66504 13.125 3.66504H15C16.0355 3.66504 16.875 4.50451 16.875 5.54004V7.41504C16.875 8.45057 16.0355 9.29004 15 9.29004H13.125C12.0895 9.29004 11.25 8.45057 11.25 7.41504V5.54004Z" stroke="#FF9900" stroke-linecap="round" stroke-linejoin="round"/>
<path d="M11.25 13.665C11.25 12.6295 12.0895 11.79 13.125 11.79H15C16.0355 11.79 16.875 12.6295 16.875 13.665V15.54C16.875 16.5756 16.0355 17.415 15 17.415H13.125C12.0895 17.415 11.25 16.5756 11.25 15.54V13.665Z" stroke="#FF9900" stroke-linecap="round" stroke-linejoin="round"/>
</g>
</g>
</svg>
