<svg width="29" height="28" viewBox="0 0 29 28" fill="none" xmlns="http://www.w3.org/2000/svg">
<g id="heroicons-outline/face-smile">
<path id="Vector" d="M18.2123 17.7123C16.1621 19.7626 12.8379 19.7626 10.7877 17.7123M25 14C25 19.799 20.299 24.5 14.5 24.5C8.70101 24.5 4 19.799 4 14C4 8.20101 8.70101 3.5 14.5 3.5C20.299 3.5 25 8.20101 25 14ZM11.875 11.375C11.875 11.8582 11.6791 12.25 11.4375 12.25C11.1959 12.25 11 11.8582 11 11.375C11 10.8918 11.1959 10.5 11.4375 10.5C11.6791 10.5 11.875 10.8918 11.875 11.375ZM11.4375 11.375H11.4463V11.3925H11.4375V11.375ZM18 11.375C18 11.8582 17.8041 12.25 17.5625 12.25C17.3209 12.25 17.125 11.8582 17.125 11.375C17.125 10.8918 17.3209 10.5 17.5625 10.5C17.8041 10.5 18 10.8918 18 11.375ZM17.5625 11.375H17.5713V11.3925H17.5625V11.375Z" stroke="white" stroke-width="1.5" stroke-linecap="round" stroke-linejoin="round"/>
</g>
</svg>
